HIERARCHY
ROOT Hips
{
	OFFSET 0.000000 0.000000 0.000000
	CHANNELS 6 Xposition Yposition Zposition Xrotation Yrotation Zrotation
	JOINT LeftUpLeg_virtual
	{
		OFFSET 0.000000 0.000000 0.000000
		CHANNELS 3 Xrotation Yrotation Zrotation
		JOINT LeftUpLeg
		{
			OFFSET 11.394100 -6.187798 -0.413800
			CHANNELS 3 Xrotation Yrotation Zrotation
			JOINT LeftLeg
			{
				OFFSET 0.430247 -32.302673 3.732800
				CHANNELS 3 Xrotation Yrotation Zrotation
				JOINT LeftFoot
				{
					OFFSET -0.430247 -48.264931 -6.423300
					CHANNELS 3 Xrotation Yrotation Zrotation
					JOINT LeftToeBase
					{
						OFFSET 4.230900 -16.068199 23.438400
						CHANNELS 3 Xrotation Yrotation Zrotation
						JOINT LeftToe_End
						{
							OFFSET 4.510700 0.695400 19.974600
							CHANNELS 3 Xrotation Yrotation Zrotation
							End Site
							{
								OFFSET 0 0 0
							}
						}
					}
				}
			}
		}
	}
	JOINT RightUpLeg_virtual
	{
		OFFSET 0.000000 0.000000 0.000000
		CHANNELS 3 Xrotation Yrotation Zrotation
		JOINT RightUpLeg
		{
			OFFSET -11.333700 -6.187798 -0.413800
			CHANNELS 3 Xrotation Yrotation Zrotation
			JOINT RightLeg
			{
				OFFSET -0.430392 -32.302628 3.733000
				CHANNELS 3 Xrotation Yrotation Zrotation
				JOINT RightFoot
				{
					OFFSET 0.430392 -48.264973 -6.423500
					CHANNELS 3 Xrotation Yrotation Zrotation
					JOINT RightToeBase
					{
						OFFSET -4.230900 -16.068199 23.438400
						CHANNELS 3 Xrotation Yrotation Zrotation
						JOINT RightToe_End
						{
							OFFSET -4.510700 0.695400 19.974600
							CHANNELS 3 Xrotation Yrotation Zrotation
							End Site
							{
								OFFSET 0 0 0
							}
						}
					}
				}
			}
		}
	}
	JOINT Spine_virtual
	{
		OFFSET 0.000000 0.000000 0.000000
		CHANNELS 3 Xrotation Yrotation Zrotation
		JOINT Spine
		{
			OFFSET -0.002400 12.777504 0.315300
			CHANNELS 3 Xrotation Yrotation Zrotation
			JOINT Spine1
			{
				OFFSET -0.002067 5.816869 0.032633
				CHANNELS 3 Xrotation Yrotation Zrotation
				JOINT Spine1_split
				{
					OFFSET -0.002067 5.816869 0.032633
					CHANNELS 3 Xrotation Yrotation Zrotation
					JOINT Spine2
					{
						OFFSET -0.002067 5.816869 0.032633
						CHANNELS 3 Xrotation Yrotation Zrotation
						JOINT Neck_virtual
						{
							OFFSET 0.000000 0.000000 0.000000
							CHANNELS 3 Xrotation Yrotation Zrotation
							JOINT Neck
							{
								OFFSET -0.003700 21.199493 -0.826900
								CHANNELS 3 Xrotation Yrotation Zrotation
								JOINT Head
								{
									OFFSET 0.000000 20.442200 4.834800
									CHANNELS 3 Xrotation Yrotation Zrotation
									JOINT HeadTop_End
									{
										OFFSET 0.000000 34.668396 4.968400
										CHANNELS 3 Xrotation Yrotation Zrotation
										End Site
										{
											OFFSET 0 0 0
										}
									}
								}
							}
						}
						JOINT LeftShoulder_virtual
						{
							OFFSET 0.000000 0.000000 0.000000
							CHANNELS 3 Xrotation Yrotation Zrotation
							JOINT LeftShoulder
							{
								OFFSET 3.288150 8.794197 -1.372250
								CHANNELS 3 Xrotation Yrotation Zrotation
								JOINT LeftShoulder_split
								{
									OFFSET 3.288150 8.794197 -1.372250
									CHANNELS 3 Xrotation Yrotation Zrotation
									JOINT LeftArm
									{
										OFFSET 11.953299 -2.279007 -0.146200
										CHANNELS 3 Xrotation Yrotation Zrotation
										JOINT LeftForeArm
										{
											OFFSET 18.448900 0.000000 0.000000
											CHANNELS 3 Xrotation Yrotation Zrotation
											JOINT LeftHand
											{
												OFFSET 29.527798 0.000000 0.000000
												CHANNELS 3 Xrotation Yrotation Zrotation
												End Site
												{
													OFFSET 0 0 0
												}
											}
										}
									}
								}
							}
						}
						JOINT RightShoulder_virtual
						{
							OFFSET 0.000000 0.000000 0.000000
							CHANNELS 3 Xrotation Yrotation Zrotation
							JOINT RightShoulder
							{
								OFFSET -3.249400 8.794197 -1.372250
								CHANNELS 3 Xrotation Yrotation Zrotation
								JOINT RightShoulder_split
								{
									OFFSET -3.249400 8.794197 -1.372250
									CHANNELS 3 Xrotation Yrotation Zrotation
									JOINT RightArm
									{
										OFFSET -11.953299 -2.279007 -0.146200
										CHANNELS 3 Xrotation Yrotation Zrotation
										JOINT RightForeArm
										{
											OFFSET -18.448900 0.000000 0.000000
											CHANNELS 3 Xrotation Yrotation Zrotation
											JOINT RightHand
											{
												OFFSET -29.527802 0.000000 0.000000
												CHANNELS 3 Xrotation Yrotation Zrotation
												End Site
												{
													OFFSET 0 0 0
												}
											}
										}
									}
								}
							}
						}
					}
				}
			}
		}
	}
}
MOTION
Frames: 11
Frame Time: 0.03333333
-0.412577 99.943710 -0.247360 0.000000 0.000000 0.000000 -9.017468 -5.423020 8.599746 8.396250 15.384231 -13.298052 9.607271 -0.035801 -0.133353 -7.181405 -0.473127 4.590294 -0.000008 0.000002 0.000000 0.000000 0.000000 0.000000 -9.017468 -5.423020 8.599746 -10.865887 -12.175810 -25.727982 25.531358 0.338781 0.271697 -6.197339 -9.614395 9.295287 -0.000135 0.000007 0.000349 0.000000 0.000000 0.000000 -9.017468 -5.423020 8.599746 2.412280 1.352393 -5.298500 4.666352 1.729998 -2.802044 0.000000 0.000000 0.000000 0.000000 0.000000 0.000000 4.685184 1.690013 -2.793393 -2.808737 -0.350888 -5.041334 -1.723852 -2.292228 2.025736 0.000000 0.000000 0.000000 4.685184 1.690013 -2.793393 4.034698 -13.464704 -7.420043 0.000000 0.000000 0.000000 5.772115 3.721069 -60.112925 11.491850 -25.077058 -5.820578 0.000000 0.000000 0.000000 4.685184 1.690013 -2.793393 3.919269 12.466705 7.900377 0.000000 0.000000 0.000000 -3.939683 -11.622637 68.565079 15.857370 12.603577 4.140649 0.000000 0.000000 0.000000 
-0.549605 100.103569 -0.177174 0.000000 0.000000 0.000000 -9.290177 -5.212684 8.278460 6.496549 15.642860 -12.384706 12.357041 -0.166704 -0.178737 -5.981568 -0.203772 5.058269 -0.694098 0.005113 -0.421883 0.000000 0.000000 0.000000 -9.290177 -5.212684 8.278460 -10.710759 -12.141177 -25.250893 25.981469 0.094271 0.248879 -5.902588 -9.713109 8.842626 -0.153720 -0.001107 0.409486 0.000000 0.000000 0.000000 -9.290177 -5.212684 8.278460 2.770527 1.259561 -5.216002 5.395335 1.608661 -2.665655 0.000000 0.000000 0.000000 0.000000 0.000000 0.000000 5.413139 1.560643 -2.655692 -4.963399 -0.057444 -5.756623 -1.813866 -2.079886 1.239585 0.000000 0.000000 0.000000 5.413139 1.560643 -2.655692 3.884198 -14.711369 -6.633770 0.000000 0.000000 0.000000 14.149914 -3.920244 -57.208117 5.105500 -33.594962 -7.629387 0.000000 0.000000 0.000000 5.413139 1.560643 -2.655692 3.778978 13.585870 7.369179 0.000000 0.000000 0.000000 -1.561296 -8.690972 67.291140 19.661266 17.108680 3.253669 0.000000 0.000000 0.000000 
-0.661358 100.668625 0.251957 0.000000 0.000000 0.000000 -9.775341 -4.792867 7.662661 5.309881 15.535154 -11.289066 14.502515 -0.200948 -0.220959 -4.914353 0.004311 5.504446 -2.277981 0.035082 -0.881833 0.000000 0.000000 0.000000 -9.775341 -4.792867 7.662661 -10.049748 -12.737078 -24.871727 25.778543 0.052617 0.252093 -3.822860 -9.593065 9.834753 -1.012847 -0.030902 1.747561 0.000000 0.000000 0.000000 -9.775341 -4.792867 7.662661 3.338107 1.153401 -5.223139 6.545348 1.462752 -2.356484 0.000000 0.000000 0.000000 0.000000 0.000000 0.000000 6.561996 1.400467 -2.344019 -7.591532 0.266903 -6.803656 -3.470357 -1.812354 0.075826 0.000000 0.000000 0.000000 6.561996 1.400467 -2.344019 3.718491 -16.068575 -5.869252 0.000000 0.000000 0.000000 24.385449 -11.673115 -51.699676 -1.015572 -43.851645 -7.921001 0.000000 0.000000 0.000000 6.561996 1.400467 -2.344019 3.632213 14.772951 6.764337 0.000000 0.000000 0.000000 2.374863 -4.131470 64.732899 24.567490 23.972120 0.180360 0.000000 0.000000 0.000000 
-0.859005 101.435455 0.552872 0.000000 0.000000 0.000000 -10.384099 -4.226425 6.945998 4.321655 14.706734 -10.042132 15.946216 -0.181456 -0.247987 -3.016523 0.650273 5.132215 -4.535263 0.059061 -0.744505 0.000000 0.000000 0.000000 -10.384099 -4.226425 6.945998 -9.644066 -13.335129 -24.567214 25.807615 -0.014668 0.256327 -0.437784 -9.354598 11.580305 -4.831461 -0.062896 0.743970 0.000000 0.000000 0.000000 -10.384099 -4.226425 6.945998 4.104734 1.012115 -5.326396 8.102734 1.308807 -1.967463 0.000000 0.000000 0.000000 0.000000 0.000000 0.000000 8.118222 1.224252 -1.950584 -10.959817 0.827375 -8.283230 -5.796058 -1.466745 -1.105885 0.000000 0.000000 0.000000 8.118222 1.224252 -1.950584 3.677919 -17.189240 -4.621434 0.000000 0.000000 0.000000 35.375568 -17.290663 -44.197225 -8.508776 -55.069688 -8.002283 0.000000 0.000000 0.000000 8.118222 1.224252 -1.950584 3.594158 15.776873 5.711523 0.000000 0.000000 0.000000 7.321293 0.823304 61.355917 28.871469 31.893544 -5.417104 0.000000 0.000000 0.000000 
-1.077130 102.288940 0.523243 0.000000 0.000000 0.000000 -11.304327 -3.593023 6.143017 3.676352 13.356934 -8.809751 16.810258 -0.150641 -0.266014 -0.571178 1.607787 4.485300 -6.970499 0.054499 -0.445732 0.000000 0.000000 0.000000 -11.304327 -3.593023 6.143017 -8.727591 -13.883761 -23.953521 25.318797 -0.260292 0.238634 3.201331 -8.957445 12.957992 -8.348526 0.001130 -0.007710 0.000000 0.000000 0.000000 -11.304327 -3.593023 6.143017 5.060517 0.862289 -5.409456 10.048706 1.179355 -1.506794 0.000000 0.000000 0.000000 0.000000 0.000000 0.000000 10.062919 1.064182 -1.482888 -15.086223 1.643470 -10.274193 -7.234900 -1.305721 -2.073884 0.000000 0.000000 0.000000 10.062919 1.064182 -1.482888 3.792829 -17.998877 -2.810014 0.000000 0.000000 0.000000 45.750253 -19.635078 -36.192284 -21.232090 -66.513680 -12.196950 0.000000 0.000000 0.000000 10.062919 1.064182 -1.482888 3.695867 16.509325 4.154534 0.000000 0.000000 0.000000 12.858291 5.242511 57.359512 31.447052 40.722203 -12.921433 0.000000 0.000000 0.000000 
-1.384643 103.087540 -0.071671 0.000000 0.000000 0.000000 -11.654909 -2.999768 5.279204 2.431967 12.559736 -7.408195 17.287224 -0.100562 -0.292090 2.010195 2.019014 3.901277 -8.962963 0.033631 -0.213224 0.000000 0.000000 0.000000 -11.654909 -2.999768 5.279204 -9.503484 -11.263666 -22.756520 27.055100 -0.351152 0.214025 7.443305 -7.944073 13.788516 -12.473373 0.007903 -0.035646 0.000000 0.000000 0.000000 -11.654909 -2.999768 5.279204 5.978459 0.718443 -5.439730 11.925766 1.197065 -1.127009 0.000000 0.000000 0.000000 0.000000 0.000000 0.000000 11.939829 1.053964 -1.095914 -18.678998 2.360589 -12.136421 -8.640259 -1.370358 -2.697550 0.000000 0.000000 0.000000 11.939829 1.053964 -1.095914 3.767386 -18.757045 -1.913574 0.000000 0.000000 0.000000 54.316895 -18.784567 -28.071866 -46.310189 -76.081327 -29.622725 0.000000 0.000000 0.000000 11.939829 1.053964 -1.095914 3.634450 17.267903 3.450438 0.000000 0.000000 0.000000 17.972282 7.903362 52.294520 33.437806 49.740767 -21.898816 0.000000 0.000000 0.000000 
-1.755400 103.722313 -0.959969 0.000000 0.000000 0.000000 -11.638196 -2.447414 4.297551 0.839001 12.080847 -5.814978 17.619183 -0.047423 -0.328735 4.240175 2.051071 3.370269 -10.411330 0.000597 -0.003263 0.000000 0.000000 0.000000 -11.638196 -2.447414 4.297551 -14.700304 -2.603503 -21.158012 36.913006 -0.129802 0.229991 9.195315 -5.887841 17.937176 -11.288087 0.471614 -2.361386 0.000000 0.000000 0.000000 -11.638196 -2.447414 4.297551 6.948645 0.618941 -5.186879 13.897080 1.341576 -0.871818 0.000000 0.000000 0.000000 0.000000 0.000000 0.000000 13.911354 1.185207 -0.836186 -20.580697 3.346887 -13.019385 -10.792419 -0.707094 -3.623234 0.000000 0.000000 0.000000 13.911354 1.185207 -0.836186 3.102876 -19.861420 -4.146645 0.000000 0.000000 0.000000 60.448813 -15.465712 -19.147638 -89.318691 -82.240737 -67.492808 0.000000 0.000000 0.000000 13.911354 1.185207 -0.836186 2.892173 18.619722 5.627769 0.000000 0.000000 0.000000 21.713535 8.045576 45.273724 39.228464 57.568495 -34.668941 0.000000 0.000000 0.000000 
-2.133400 104.256165 -1.978058 0.000000 0.000000 0.000000 -10.609030 -1.851288 3.092409 -1.557473 11.614860 -4.135205 17.594566 0.017075 -0.336828 5.853180 2.072772 3.303129 -10.837815 0.027738 -0.144897 0.000000 0.000000 0.000000 -10.609030 -1.851288 3.092409 -22.518896 4.090820 -18.445242 47.862974 -0.271052 0.201440 7.612902 -3.916991 18.013750 -1.317632 0.037345 -1.623155 0.000000 0.000000 0.000000 -10.609030 -1.851288 3.092409 7.770611 0.535360 -4.586448 15.559936 1.586076 -0.715184 0.000000 0.000000 0.000000 0.000000 0.000000 0.000000 15.574383 1.436217 -0.680106 -18.788705 4.106498 -12.224919 -14.974220 1.128072 -5.691695 0.000000 0.000000 0.000000 15.574383 1.436217 -0.680106 1.671299 -21.208863 -9.585009 0.000000 0.000000 0.000000 63.563134 -10.963338 -9.918421 -171.095364 -84.591367 -146.812608 0.000000 0.000000 0.000000 15.574383 1.436217 -0.680106 1.399875 20.579198 10.781936 0.000000 0.000000 0.000000 23.659171 5.972926 36.679861 52.772777 62.696697 -54.283137 0.000000 0.000000 0.000000 
-2.553990 104.666328 -3.194771 0.000000 0.000000 0.000000 -8.876523 -1.516324 1.555647 -5.103714 11.551192 -2.013604 18.081946 0.072803 -0.348652 7.096230 1.907172 3.504603 -10.844707 0.091151 -0.475818 0.000000 0.000000 0.000000 -8.876523 -1.516324 1.555647 -31.613657 7.194862 -15.476118 57.059291 -0.187651 0.184045 7.150770 -2.624319 14.138311 -0.000001 -0.000004 -0.000001 0.000000 0.000000 0.000000 -8.876523 -1.516324 1.555647 8.390816 0.551679 -3.809298 16.798208 1.976616 -0.553601 0.000000 0.000000 0.000000 0.000000 0.000000 0.000000 16.812750 1.847509 -0.523513 -14.390418 4.195305 -9.654250 -18.669427 3.796731 -8.942849 0.000000 0.000000 0.000000 16.812750 1.847509 -0.523513 0.097663 -22.255584 -15.233578 0.000000 0.000000 0.000000 62.767178 -6.606415 -2.369626 137.181645 -78.514889 161.833628 0.000000 0.000000 0.000000 16.812750 1.847509 -0.523513 -0.142188 22.442738 16.080338 0.000000 0.000000 0.000000 23.697543 2.931911 28.770208 71.252697 64.965795 -78.017385 0.000000 0.000000 0.000000 
-3.079206 104.651382 -4.769291 0.000000 0.000000 0.000000 -6.843178 -1.471584 0.518079 -9.323309 11.537620 -0.622075 19.266219 0.175494 -0.399875 7.080099 2.204060 5.171558 -8.904523 0.312081 -1.991057 0.000000 0.000000 0.000000 -6.843178 -1.471584 0.518079 -39.039210 6.826582 -13.942092 62.162563 0.102491 0.201183 7.758044 -2.803471 8.494407 0.000000 0.000000 0.000003 0.000000 0.000000 0.000000 -6.843178 -1.471584 0.518079 8.821976 0.524691 -3.384853 17.659953 2.191596 -0.672069 0.000000 0.000000 0.000000 0.000000 0.000000 0.000000 17.673598 2.078594 -0.645958 -7.036780 4.364976 -8.033707 -21.354429 5.590315 -9.786633 0.000000 0.000000 0.000000 17.673598 2.078594 -0.645958 -0.854678 -22.989602 -18.262618 0.000000 0.000000 0.000000 57.273820 -2.603072 2.554348 132.910140 -71.581564 156.790653 0.000000 0.000000 0.000000 17.673598 2.078594 -0.645958 -0.995208 23.738896 18.669262 0.000000 0.000000 0.000000 21.505259 -0.002968 23.581138 90.256777 66.543330 -101.355964 0.000000 0.000000 0.000000 
-3.599099 103.992027 -6.193241 0.000000 0.000000 0.000000 -5.621350 -1.106758 0.194334 -14.031387 10.890578 0.264031 22.777860 0.132931 -0.469922 6.647441 2.664291 6.021159 -7.944064 0.398696 -2.854738 0.000000 0.000000 0.000000 -5.621350 -1.106758 0.194334 -43.947473 5.036204 -13.616367 65.254179 0.535773 0.244338 8.796640 -3.648514 1.819427 0.000001 0.000001 -0.000003 0.000000 0.000000 0.000000 -5.621350 -1.106758 0.194334 9.303291 0.432819 -3.488797 18.624130 2.317852 -0.783689 0.000000 0.000000 0.000000 0.000000 0.000000 0.000000 18.638787 2.196024 -0.754716 1.897288 4.061756 -8.627026 -22.149508 5.347706 -8.529098 0.000000 0.000000 0.000000 18.638787 2.196024 -0.754716 -1.185090 -23.965384 -19.006149 0.000000 0.000000 0.000000 47.746564 0.703847 6.364899 143.440311 -67.121068 165.690704 0.000000 0.000000 0.000000 18.638787 2.196024 -0.754716 -1.240763 24.720908 19.051015 0.000000 0.000000 0.000000 16.801552 -2.724772 20.656565 111.366426 68.744973 -125.340597 0.000000 0.000000 0.000000 
